<?xml version="1.0" encoding="utf-8"?>
<!-- Generator: Adobe Illustrator 21.1.0, SVG Export Plug-In . SVG Version: 6.00 Build 0)  -->
<svg version="1.1" id="Arrows" xmlns="http://www.w3.org/2000/svg" xmlns:xlink="http://www.w3.org/1999/xlink" x="0px" y="0px"
	 viewBox="0 0 17.4 15.1" style="enable-background:new 0 0 17.4 15.1;" xml:space="preserve">
<style type="text/css">
	.st0{fill:#ffffff;}
</style>
<g>
	<g>
		<g>
			<path class="st0" d="M16.6,14.9L16.6,14.9c-0.3,0-0.5-0.3-0.5-0.5c0,0,0.1-1.7-1.3-3.2S11.1,9,7.9,9C7.6,9,7.4,8.8,7.4,8.5
				S7.6,8,7.9,8c3.5,0,6,0.8,7.6,2.5c0.1,0.1,0.3,0.3,0.4,0.4c-0.3-1.5-1-2.7-1.9-3.7c-2.4-2.5-6.1-2.5-6.1-2.5
				c-0.3,0-0.5-0.2-0.5-0.5s0.2-0.5,0.5-0.5c0.2,0,4.1-0.1,6.8,2.8c1.8,1.9,2.6,4.5,2.4,7.9C17.1,14.7,16.9,14.9,16.6,14.9z"/>
		</g>
	</g>
	<g>
		<path class="st0" d="M7.9,12.8c-0.1,0-0.2,0-0.3-0.1L0.3,6.8C0.2,6.7,0.1,6.6,0.1,6.4S0.2,6.1,0.3,6l7.3-5.8
			C7.8,0.1,8,0.1,8.1,0.1c0.2,0.1,0.3,0.3,0.3,0.5v3.7c0,0.3-0.2,0.5-0.5,0.5S7.4,4.6,7.4,4.3V1.7l-6,4.8l6,4.8V8.6
			c0-0.3,0.2-0.5,0.5-0.5c0.3,0,0.5,0.2,0.5,0.5v3.7c0,0.2-0.1,0.4-0.3,0.5C8.1,12.7,8,12.8,7.9,12.8z"/>
	</g>
</g>
</svg>
